<?xml version="1.0" encoding="utf-8"?>
<!-- Generator: Adobe Illustrator 21.1.0, SVG Export Plug-In . SVG Version: 6.00 Build 0)  -->
<svg version="1.1" id="Layer_1" xmlns="http://www.w3.org/2000/svg" xmlns:xlink="http://www.w3.org/1999/xlink" x="0px" y="0px"
	 viewBox="0 0 134.7 280" enable-background="new 0 0 134.7 280" xml:space="preserve">
<path fill="#F5F5F5" d="M62.5,214c0,1.9-1.5,3.3-3.4,3.3s-3.3-1.5-3.3-3.3c0-1.9,1.5-3.4,3.3-3.4C61,210.7,62.5,212.2,62.5,214
	L62.5,214z"/>
<path fill="#F5F5F5" d="M76,214c0,1.9-1.5,3.3-3.3,3.3c-1.9,0-3.4-1.5-3.4-3.3c0-1.9,1.5-3.4,3.4-3.4C74.5,210.7,76,212.2,76,214
	L76,214z"/>
<path fill="#F5F5F5" d="M89.4,214c0,1.9-1.5,3.3-3.4,3.3s-3.4-1.5-3.4-3.3c0-1.9,1.5-3.4,3.4-3.4C87.9,210.7,89.4,212.2,89.4,214
	L89.4,214z"/>
<path fill="#F5F5F5" d="M102.9,214c0,1.9-1.5,3.3-3.4,3.3s-3.4-1.5-3.4-3.3c0-1.9,1.5-3.4,3.4-3.4
	C101.4,210.7,102.9,212.2,102.9,214L102.9,214z"/>
<path fill="#F5F5F5" d="M116.4,214c0,1.9-1.5,3.3-3.4,3.3s-3.4-1.5-3.4-3.3c0-1.9,1.5-3.4,3.4-3.4
	C114.8,210.7,116.4,212.2,116.4,214L116.4,214z"/>
<path fill="#F5F5F5" d="M129.8,214c0,1.9-1.5,3.3-3.4,3.3s-3.3-1.5-3.3-3.3c0-1.9,1.5-3.4,3.3-3.4
	C128.3,210.7,129.8,212.2,129.8,214L129.8,214z"/>
<path fill="#F5F5F5" d="M69.2,207.3c0,1.9-1.5,3.4-3.4,3.4s-3.4-1.5-3.4-3.4s1.5-3.4,3.4-3.4C67.7,203.9,69.2,205.4,69.2,207.3
	L69.2,207.3z"/>
<path fill="#F5F5F5" d="M82.7,207.3c0,1.9-1.5,3.4-3.4,3.4s-3.4-1.5-3.4-3.4s1.5-3.4,3.4-3.4C81.2,203.9,82.7,205.4,82.7,207.3
	L82.7,207.3z"/>
<path fill="#F5F5F5" d="M96.2,150.1c0,1.9-1.5,3.4-3.4,3.4s-3.3-1.5-3.3-3.4s1.5-3.3,3.3-3.3C94.7,146.7,96.2,148.2,96.2,150.1
	L96.2,150.1z"/>
<path fill="#F5F5F5" d="M76,113.1c0,1.9-1.5,3.3-3.3,3.3c-1.9,0-3.4-1.5-3.4-3.3c0-1.9,1.5-3.4,3.4-3.4
	C74.5,109.7,76,111.2,76,113.1L76,113.1z"/>
<path fill="#F5F5F5" d="M89.4,113.1c0,1.9-1.5,3.3-3.4,3.3s-3.4-1.5-3.4-3.3c0-1.9,1.5-3.4,3.4-3.4S89.4,111.2,89.4,113.1
	L89.4,113.1z"/>
<path fill="#F5F5F5" d="M102.9,113.1c0,1.9-1.5,3.3-3.4,3.3s-3.4-1.5-3.4-3.3c0-1.9,1.5-3.4,3.4-3.4S102.9,111.2,102.9,113.1
	L102.9,113.1z"/>
<path fill="#F5F5F5" d="M116.4,113.1c0,1.9-1.5,3.3-3.4,3.3s-3.4-1.5-3.4-3.3c0-1.9,1.5-3.4,3.4-3.4
	C114.8,109.7,116.4,111.2,116.4,113.1L116.4,113.1z"/>
<path fill="#F5F5F5" d="M109.6,106.3c0,1.9-1.5,3.4-3.3,3.4c-1.9,0-3.4-1.5-3.4-3.4s1.5-3.4,3.4-3.4
	C108.1,103,109.6,104.5,109.6,106.3L109.6,106.3z"/>
<path fill="#F5F5F5" d="M116.4,99.6c0,1.9-1.5,3.4-3.4,3.4s-3.4-1.5-3.4-3.4s1.5-3.3,3.4-3.3C114.8,96.3,116.4,97.8,116.4,99.6
	L116.4,99.6z"/>
<path fill="#F5F5F5" d="M82.7,106.3c0,1.9-1.5,3.4-3.4,3.4s-3.4-1.5-3.4-3.4s1.5-3.4,3.4-3.4C81.2,103,82.7,104.5,82.7,106.3
	L82.7,106.3z"/>
<path fill="#F5F5F5" d="M96.2,106.3c0,1.9-1.5,3.4-3.4,3.4s-3.3-1.5-3.3-3.4s1.5-3.4,3.3-3.4C94.7,103,96.2,104.5,96.2,106.3
	L96.2,106.3z"/>
<path fill="#F5F5F5" d="M76,99.6c0,1.9-1.5,3.4-3.3,3.4c-1.9,0-3.4-1.5-3.4-3.4s1.5-3.3,3.4-3.3C74.5,96.3,76,97.8,76,99.6L76,99.6z
	"/>
<path fill="#F5F5F5" d="M82.7,119.8c0,1.9-1.5,3.4-3.4,3.4s-3.4-1.5-3.4-3.4s1.5-3.4,3.4-3.4S82.7,117.9,82.7,119.8L82.7,119.8z"/>
<path fill="#F5F5F5" d="M89.4,126.5c0,1.9-1.5,3.4-3.4,3.4s-3.4-1.5-3.4-3.4s1.5-3.4,3.4-3.4C87.9,123.2,89.4,124.7,89.4,126.5
	L89.4,126.5z"/>
<path fill="#F5F5F5" d="M102.9,126.5c0,1.9-1.5,3.4-3.4,3.4s-3.4-1.5-3.4-3.4s1.5-3.4,3.4-3.4C101.4,123.2,102.9,124.7,102.9,126.5
	L102.9,126.5z"/>
<path fill="#F5F5F5" d="M96.2,119.8c0,1.9-1.5,3.4-3.4,3.4s-3.3-1.5-3.3-3.4s1.5-3.4,3.3-3.4C94.7,116.4,96.2,117.9,96.2,119.8
	L96.2,119.8z"/>
<path fill="#F5F5F5" d="M109.6,119.8c0,1.9-1.5,3.4-3.3,3.4c-1.9,0-3.4-1.5-3.4-3.4s1.5-3.4,3.4-3.4
	C108.1,116.4,109.6,117.9,109.6,119.8L109.6,119.8z"/>
<path fill="#F5F5F5" d="M96.2,160.2c0,1.9-1.5,3.4-3.4,3.4s-3.3-1.5-3.3-3.4s1.5-3.4,3.3-3.4C94.7,156.8,96.2,158.3,96.2,160.2
	L96.2,160.2z"/>
<path fill="#F5F5F5" d="M96.2,170.3c0,1.9-1.5,3.4-3.4,3.4s-3.3-1.5-3.3-3.4s1.5-3.4,3.3-3.4C94.7,166.9,96.2,168.4,96.2,170.3
	L96.2,170.3z"/>
<path fill="#F5F5F5" d="M96.2,180.4c0,1.9-1.5,3.3-3.4,3.3s-3.3-1.5-3.3-3.3c0-1.9,1.5-3.4,3.3-3.4C94.7,177,96.2,178.5,96.2,180.4
	L96.2,180.4z"/>
<path fill="#F5F5F5" d="M96.2,190.5c0,1.9-1.5,3.4-3.4,3.4s-3.3-1.5-3.3-3.4s1.5-3.4,3.3-3.4C94.7,187.1,96.2,188.6,96.2,190.5
	L96.2,190.5z"/>
<path fill="#F5F5F5" d="M96.2,200.6c0,1.9-1.5,3.4-3.4,3.4s-3.3-1.5-3.3-3.4s1.5-3.3,3.3-3.3C94.7,197.2,96.2,198.7,96.2,200.6
	L96.2,200.6z"/>
<path fill="#F5F5F5" d="M109.6,207.3c0,1.9-1.5,3.4-3.3,3.4c-1.9,0-3.4-1.5-3.4-3.4s1.5-3.4,3.4-3.4
	C108.1,203.9,109.6,205.4,109.6,207.3L109.6,207.3z"/>
<path fill="#F5F5F5" d="M123.1,207.3c0,1.9-1.5,3.4-3.4,3.4s-3.4-1.5-3.4-3.4s1.5-3.4,3.4-3.4C121.6,203.9,123.1,205.4,123.1,207.3
	L123.1,207.3z"/>
<path fill="#F5F5F5" d="M134.7,234.2H25.5c-1.8,0-3.3-1.5-3.3-3.3c0-1.9,1.5-3.4,3.3-3.4h109.2v-9.7c-0.5-0.2-1-0.4-1.5-0.4
	c-1.9,0-3.4,1.5-3.4,3.4h-6.7c0-1.9-1.5-3.4-3.4-3.4s-3.4,1.5-3.4,3.4h-6.7c0-1.9-1.5-3.4-3.3-3.4c-1.9,0-3.4,1.5-3.4,3.4h-6.7
	c0-1.9-1.5-3.4-3.4-3.4s-3.3,1.5-3.3,3.4h-6.7c0-1.9-1.5-3.4-3.4-3.4s-3.4,1.5-3.4,3.4h-6.7c0-1.9-1.5-3.4-3.4-3.4s-3.4,1.5-3.4,3.4
	h-6.7c0-1.9-1.5-3.4-3.4-3.4s-3.4,1.5-3.4,3.4v-20.2c0-25,14.8-47.4,37.7-57.2h12.1c18.1,7.8,31.2,23.4,35.8,42v-18.2
	c-6.3-11.3-15.7-20.8-27.5-27.2c11.7-6.4,21.2-15.9,27.5-27.2V94.6c-4.7,18.6-17.7,34.2-35.8,42H86.7C63.8,126.8,49,104.4,49,79.4
	V59.2h85.6v-6.7H25.5c-1.8,0-3.3-1.5-3.3-3.4s1.5-3.3,3.3-3.3h109.2V39H25.5c-5.6,0-10.1,4.5-10.1,10.1s4.5,10.1,10.1,10.1h16.8
	v20.2c0,25.5,14,48.6,36.1,60.6c-22.1,12-36.1,35-36.1,60.6v20.2H25.5c-5.6,0-10.1,4.5-10.1,10.1S19.9,241,25.5,241h109.2V234.2z"/>
</svg>
