<?xml version="1.0" encoding="utf-8"?>
<!-- Generator: Adobe Illustrator 21.1.0, SVG Export Plug-In . SVG Version: 6.00 Build 0)  -->
<svg version="1.1" id="Layer_31" xmlns="http://www.w3.org/2000/svg" xmlns:xlink="http://www.w3.org/1999/xlink" x="0px" y="0px"
	 viewBox="0 0 30.3 30.3" enable-background="new 0 0 30.3 30.3" xml:space="preserve">
<linearGradient id="SVGID_31_" gradientUnits="userSpaceOnUse" x1="7.42" y1="15.1369" x2="22.854" y2="15.1369">
	<stop  offset="0" style="stop-color:#F05A26"/>
	<stop  offset="1" style="stop-color:#FAAF3B"/>
</linearGradient>
<path fill="url(#SVGID_31_)" d="M16.5,15.1l6,6c0.4,0.4,0.4,1,0,1.4l0,0c-0.4,0.4-1,0.4-1.4,0l-6-6l-6,6c-0.4,0.4-1,0.4-1.4,0l0,0
	c-0.4-0.4-0.4-1,0-1.4l6-6l-6-6c-0.4-0.4-0.4-1,0-1.4l0,0c0.4-0.4,1-0.4,1.4,0l6,6l6-6c0.4-0.4,1-0.4,1.4,0l0,0c0.4,0.4,0.4,1,0,1.4
	L16.5,15.1z"/>
</svg>
