<?xml version="1.0" encoding="utf-8"?>
<!-- Generator: Adobe Illustrator 21.1.0, SVG Export Plug-In . SVG Version: 6.00 Build 0)  -->
<svg version="1.1" id="Layer_1" xmlns="http://www.w3.org/2000/svg" xmlns:xlink="http://www.w3.org/1999/xlink" x="0px" y="0px"
	 viewBox="0 0 27 35.8" enable-background="new 0 0 27 35.8" xml:space="preserve">
<path fill="#FFFFFF" stroke="#FFFFFF" stroke-miterlimit="10" d="M10.2,28v-8.5h-2v-4h2v-2.9c0-2,1.6-4.3,5.2-4.3
	c1.2,0,2.3,0.1,2.4,0.1h0.5v3l-0.1,1h-2.5c-0.8-0.4-1.4-0.3-1.4,0.5v2.5h4.5l-0.2,4h-4.3V28 M11.2,27.5h3v-8h3.5l0.1-3h-3.6V13
	c0-0.9,0.3-1.7,1.8-1.7c0.6,0,1.3,0,1.6,0l0.1-2c-0.4,0-1.3-0.1-2.1-0.1c-3,0-4.4,1.8-4.4,3.4v3.9h-3v3h3v6.6
	C11.2,26.1,11.2,27.5,11.2,27.5z"/>
</svg>
