<?xml version="1.0" encoding="utf-8"?>
<!-- Generator: Adobe Illustrator 21.1.0, SVG Export Plug-In . SVG Version: 6.00 Build 0)  -->
<svg version="1.1" id="Layer_1" xmlns="http://www.w3.org/2000/svg" xmlns:xlink="http://www.w3.org/1999/xlink" x="0px" y="0px"
	 viewBox="0 0 59 57.3" enable-background="new 0 0 59 57.3" xml:space="preserve">
<g>
	
		<linearGradient id="SVGID_1_" gradientUnits="userSpaceOnUse" x1="17.8866" y1="27.05" x2="24.4563" y2="27.05" gradientTransform="matrix(1 0 0 -1 0 60)">
		<stop  offset="0" style="stop-color:#F05A26"/>
		<stop  offset="1" style="stop-color:#FAAF3B"/>
	</linearGradient>
	<path fill="url(#SVGID_1_)" d="M23.9,36.2h-1.3v-8.3c0-0.3-0.3-0.6-0.6-0.6h-1.8c-0.3,0-0.6,0.3-0.6,0.6v8.3h-1.3
		c-0.3,0-0.6,0.3-0.6,0.6V38c0,0.3,0.3,0.6,0.6,0.6h5.4c0.3,0,0.6-0.3,0.6-0.6v-1.3C24.5,36.4,24.2,36.2,23.9,36.2z"/>
	
		<linearGradient id="SVGID_2_" gradientUnits="userSpaceOnUse" x1="34.5436" y1="27.05" x2="41.1134" y2="27.05" gradientTransform="matrix(1 0 0 -1 0 60)">
		<stop  offset="0" style="stop-color:#F05A26"/>
		<stop  offset="1" style="stop-color:#FAAF3B"/>
	</linearGradient>
	<path fill="url(#SVGID_2_)" d="M40.6,36.2h-1.3v-8.3c0-0.3-0.3-0.6-0.6-0.6H37c-0.3,0-0.6,0.3-0.6,0.6v8.3h-1.3
		c-0.3,0-0.6,0.3-0.6,0.6V38c0,0.3,0.3,0.6,0.6,0.6h5.4c0.3,0,0.6-0.3,0.6-0.6v-1.3C41.1,36.4,40.9,36.2,40.6,36.2z"/>
	
		<linearGradient id="SVGID_3_" gradientUnits="userSpaceOnUse" x1="17" y1="39.6" x2="19.5579" y2="39.6" gradientTransform="matrix(1 0 0 -1 0 60)">
		<stop  offset="0" style="stop-color:#F05A26"/>
		<stop  offset="1" style="stop-color:#FAAF3B"/>
	</linearGradient>
	<path fill="url(#SVGID_3_)" d="M17.3,22.1L17.3,22.1c0.1,0,0.2,0,0.3-0.2l1.8-2.6c0.1-0.1,0.1-0.3,0-0.4s-0.2-0.2-0.3-0.2h-1.7
		c-0.2,0-0.4,0.2-0.4,0.4v2.6C17,22,17.2,22.1,17.3,22.1z"/>
	
		<linearGradient id="SVGID_4_" gradientUnits="userSpaceOnUse" x1="24.0149" y1="37.45" x2="34.0467" y2="37.45" gradientTransform="matrix(1 0 0 -1 0 60)">
		<stop  offset="0" style="stop-color:#F05A26"/>
		<stop  offset="1" style="stop-color:#FAAF3B"/>
	</linearGradient>
	<path fill="url(#SVGID_4_)" d="M24.1,26.1c0.1,0.1,0.2,0.2,0.3,0.2h3.9c0.2,0,0.3-0.1,0.4-0.2l5.2-6.7c0.1-0.1,0.1-0.3,0-0.4
		s-0.2-0.2-0.3-0.2h-3.9c-0.2,0-0.3,0.1-0.4,0.2l-5.2,6.7C24,25.9,24,26,24.1,26.1z"/>
	
		<linearGradient id="SVGID_5_" gradientUnits="userSpaceOnUse" x1="31.2586" y1="37.45" x2="41.2904" y2="37.45" gradientTransform="matrix(1 0 0 -1 0 60)">
		<stop  offset="0" style="stop-color:#F05A26"/>
		<stop  offset="1" style="stop-color:#FAAF3B"/>
	</linearGradient>
	<path fill="url(#SVGID_5_)" d="M31.3,26.1c0.1,0.1,0.2,0.2,0.3,0.2h3.9c0.2,0,0.3-0.1,0.4-0.2l5.2-6.7c0.1-0.1,0.1-0.3,0-0.4
		s-0.2-0.2-0.3-0.2H37c-0.2,0-0.3,0.1-0.4,0.2l-5.2,6.7C31.3,25.9,31.2,26,31.3,26.1z"/>
	
		<linearGradient id="SVGID_6_" gradientUnits="userSpaceOnUse" x1="17" y1="37.45" x2="26.8013" y2="37.45" gradientTransform="matrix(1 0 0 -1 0 60)">
		<stop  offset="0" style="stop-color:#F05A26"/>
		<stop  offset="1" style="stop-color:#FAAF3B"/>
	</linearGradient>
	<path fill="url(#SVGID_6_)" d="M21.5,26.1l5.2-6.7c0.1-0.1,0.1-0.3,0-0.4s-0.2-0.2-0.3-0.2h-3.9c-0.2,0-0.3,0.1-0.4,0.2l-4.9,6.3
		c-0.1,0.1-0.1,0.3-0.1,0.4v0.2c0,0.2,0.2,0.4,0.4,0.4h3.6C21.3,26.3,21.4,26.2,21.5,26.1z"/>
	
		<linearGradient id="SVGID_7_" gradientUnits="userSpaceOnUse" x1="38.5072" y1="35.8" x2="42" y2="35.8" gradientTransform="matrix(1 0 0 -1 0 60)">
		<stop  offset="0" style="stop-color:#F05A26"/>
		<stop  offset="1" style="stop-color:#FAAF3B"/>
	</linearGradient>
	<path fill="url(#SVGID_7_)" d="M41.7,22.2c-0.1,0-0.2,0-0.3,0.1l-2.8,3.3c-0.1,0.1-0.1,0.3-0.1,0.4c0.1,0.1,0.2,0.2,0.3,0.2h2.7
		c0.2,0,0.4-0.2,0.4-0.4v-3.3C42,22.4,41.8,22.2,41.7,22.2z"/>
	
		<linearGradient id="SVGID_8_" gradientUnits="userSpaceOnUse" x1="23.7" y1="28" x2="35.2774" y2="28" gradientTransform="matrix(1 0 0 -1 0 60)">
		<stop  offset="0" style="stop-color:#F05A26"/>
		<stop  offset="1" style="stop-color:#FAAF3B"/>
	</linearGradient>
	<path fill="url(#SVGID_8_)" d="M35.3,32.4v-0.8c0-0.4-0.4-0.8-0.8-0.8h-10c-0.4,0-0.8,0.4-0.8,0.8v0.8c0,0.4,0.4,0.8,0.8,0.8h10
		C34.9,33.2,35.3,32.9,35.3,32.4z"/>
</g>
</svg>
