<?xml version="1.0" encoding="utf-8"?>
<!-- Generator: Adobe Illustrator 21.1.0, SVG Export Plug-In . SVG Version: 6.00 Build 0)  -->
<svg version="1.1" id="Layer_1" xmlns="http://www.w3.org/2000/svg" xmlns:xlink="http://www.w3.org/1999/xlink" x="0px" y="0px"
	 viewBox="0 0 59 57.3" enable-background="new 0 0 59 57.3" xml:space="preserve">
<linearGradient id="SVGID_1_" gradientUnits="userSpaceOnUse" x1="17" y1="31.3" x2="42" y2="31.3" gradientTransform="matrix(1 0 0 -1 0 60)">
	<stop  offset="0" style="stop-color:#27A9E1"/>
	<stop  offset="1" style="stop-color:#00A79D"/>
</linearGradient>
<path fill="url(#SVGID_1_)" d="M17,41.2h12.5v-25H17V41.2z M24.8,19.3h3.1v3.1h-3.1V19.3z M24.8,25.5h3.1v3.1h-3.1V25.5z M24.8,31.8
	h3.1v3.1h-3.1V31.8z M18.6,19.3h3.1v3.1h-3.1V19.3z M18.6,25.5h3.1v3.1h-3.1V25.5z M18.6,31.8h3.1v3.1h-3.1V31.8z M31.1,24H42v1.6
	H31.1V24z M31.1,41.2h3.1v-6.3h4.7v6.3H42V27.1H31.1V41.2z"/>
</svg>
