<?xml version="1.0" encoding="utf-8"?>
<!-- Generator: Adobe Illustrator 21.1.0, SVG Export Plug-In . SVG Version: 6.00 Build 0)  -->
<svg version="1.1" id="Layer_1" xmlns="http://www.w3.org/2000/svg" xmlns:xlink="http://www.w3.org/1999/xlink" x="0px" y="0px"
	 viewBox="0 0 27 35.8" enable-background="new 0 0 27 35.8" xml:space="preserve">
<path fill="#FFFFFF" d="M17.5,8.9H9.4c-2.7,0-4.9,2.2-4.9,4.9V22c0,2.7,2.2,4.9,4.9,4.9h8.2c2.7,0,4.9-2.2,4.9-4.9v-8.1
	C22.5,11.1,20.3,8.9,17.5,8.9L17.5,8.9z M17.2,25.9H8.8c-1.8,0-3.3-1.5-3.3-3.3v-8.3C5.5,12.5,7,11,8.8,11h8.3
	c1.8,0,3.3,1.5,3.3,3.3v8.3C20.5,24.4,19,25.9,17.2,25.9z"/>
<path fill="#FFFFFF" d="M13.2,13.8c-2.5,0-4.6,2.1-4.6,4.6s2.1,4.6,4.6,4.6s4.6-2.1,4.6-4.6C17.8,15.8,15.8,13.8,13.2,13.8
	L13.2,13.8z M13.2,21.4c-1.7,0-3-1.4-3-3c0-1.7,1.4-3,3-3s3,1.4,3,3S14.9,21.4,13.2,21.4L13.2,21.4z"/>
<path fill="#FFFFFF" d="M18,12.4c-0.3,0-0.6,0.1-0.8,0.3c-0.2,0.2-0.3,0.5-0.3,0.8s0.1,0.6,0.3,0.8c0.2,0.2,0.5,0.3,0.8,0.3
	s0.6-0.1,0.8-0.3c0.2-0.2,0.3-0.5,0.3-0.8s-0.1-0.6-0.3-0.8S18.3,12.4,18,12.4L18,12.4z"/>
</svg>
