<?xml version="1.0" encoding="utf-8"?>
<!-- Generator: Adobe Illustrator 21.1.0, SVG Export Plug-In . SVG Version: 6.00 Build 0)  -->
<svg version="1.1" id="Layer_1" xmlns="http://www.w3.org/2000/svg" xmlns:xlink="http://www.w3.org/1999/xlink" x="0px" y="0px"
	 viewBox="0 0 134.7 280" enable-background="new 0 0 134.7 280" xml:space="preserve">
<path fill="#F5F5F5" d="M93.7,67.6c16.3,0,29.6,13.3,29.6,29.6v23.4h6.6l0,0V97.2c0-19.9-16.2-36.2-36.2-36.2S57.5,77.3,57.5,97.2
	v23.4h6.6V97.2C64.1,80.9,77.4,67.6,93.7,67.6z"/>
<path fill="#F5F5F5" d="M134.4,61.1V72c-8.5-13.6-23.5-22.7-40.7-22.7c-26.4,0-47.8,21.5-47.8,47.8v23.4h-6.6V97.2
	c0-30,24.4-54.4,54.4-54.4C109.8,42.8,124.4,49.9,134.4,61.1z"/>
<path fill="#F5F5F5" d="M123.3,123.9v-3.3H64.1v3.3c0,1.8-1.5,3.3-3.3,3.3h65.8C124.8,127.2,123.3,125.7,123.3,123.9z"/>
<path fill="#F5F5F5" d="M134.4,230.6v6.6H35c-7.8,0-14.1-6.3-14.1-14.1v-88.4c0-7.8,6.3-14.1,14.1-14.1h4.3v3.3
	c0,1.8,1.5,3.3,3.3,3.3H35c-4.2,0-7.6,3.4-7.6,7.5v88.4c0,4.2,3.4,7.5,7.6,7.5H134.4z"/>
<path fill="#F5F5F5" d="M42.6,127.2h18.2c1.8,0,3.3-1.5,3.3-3.3v-3.3h-6.6H45.8h-6.6v3.3C39.3,125.7,40.7,127.2,42.6,127.2z"/>
<path fill="#F5F5F5" d="M134.4,120.6v6.6h-7.8c-1.8,0-3.3-1.5-3.3-3.3v-3.3C123.3,120.6,134.4,120.6,134.4,120.6z"/>
<path fill="#F5F5F5" d="M104.8,183.2c3.8-3.2,6.1-8,6.1-13c0-9.4-7.7-17.1-17.1-17.1s-17.1,7.7-17.1,17.1c0,5.1,2.2,9.8,6.1,13
	l-3.7,17.6c-0.2,1,0,2,0.7,2.8c0.6,0.8,1.6,1.2,2.5,1.2h23c1,0,1.9-0.5,2.6-1.2c0.6-0.8,0.9-1.8,0.7-2.8L104.8,183.2z M99.3,179
	c-1.1,0.7-1.7,2.1-1.4,3.5l3.3,15.7h-15l3.3-15.7c0.3-1.3-0.3-2.7-1.4-3.5c-3.1-2-4.9-5.3-4.9-8.9c0-5.8,4.7-10.5,10.6-10.5
	c5.8,0,10.6,4.7,10.6,10.5C104.3,173.8,102.4,177.1,99.3,179z"/>
</svg>
