<?xml version="1.0" encoding="utf-8"?>
<!-- Generator: Adobe Illustrator 21.1.0, SVG Export Plug-In . SVG Version: 6.00 Build 0)  -->
<svg version="1.1" id="Layer_1" xmlns="http://www.w3.org/2000/svg" xmlns:xlink="http://www.w3.org/1999/xlink" x="0px" y="0px"
	 viewBox="0 0 136 75.7" style="enable-background:new 0 0 136 75.7;" xml:space="preserve">
<style type="text/css">
	.st0{fill:#333333;}
	.st11{fill:url(#SVGID_11_);}
	.st12{fill:url(#SVGID_12_);}
</style>
<g>
	<g>
		<path class="st0" d="M83.3,12.5c0-0.3,0.3-0.5,0.6-0.5h12.9c0.3,0,0.5,0.2,0.6,0.5v2.9c0,0.3-0.2,0.6-0.6,0.6h-3.4v13.4
			c0,0.3-0.3,0.6-0.6,0.6h-3.9c-0.3,0-0.6-0.3-0.6-0.6V16h-4.4c-0.4,0-0.6-0.3-0.6-0.6V12.5z"/>
		<path class="st0" d="M106.3,12.5c0-0.3,0.4-0.5,0.7-0.5h3.1c0.2,0,0.4,0.2,0.6,0.4l0.3,0.7l6.4,16.4c0.1,0.4-0.2,0.5-0.5,0.5h-3.3
			c-0.3,0-0.6-0.1-0.7-0.5c-0.3-0.8-0.6-1.7-1-2.5h-6.6c-0.3,0.9-0.7,1.7-1,2.6c-0.1,0.3-0.3,0.4-0.6,0.4l-3.4,0
			c-0.3,0-0.6-0.2-0.4-0.5L106.3,12.5z M108.5,17.6c-0.7,1.8-1.2,3.6-1.8,5.4h3.7L108.5,17.6z"/>
		<path class="st0" d="M85.3,34.6c-0.7-0.2-0.4-0.6-0.4-0.6h9c0.2,0,0.4,0.2,0.4,0.4v2.2c0,0.2-0.2,0.4-0.4,0.4h-5.6v3h3.6
			c0.2,0,0.4,0.2,0.4,0.4v2.2c0,0.2-0.1,0.4-0.3,0.4h-3.7v4.1c0,0-0.4,0.4-0.7-0.1h-2.7c-0.2,0.5-0.3,0.4,0.4,0.1V34.6z"/>
		<path class="st0" d="M97.3,34.6c0-0.2,0.2-0.4,0.4-0.6h5.8c1.9,0.2,3.7,1.4,4.2,3.2c0.6,1.9-0.3,4-2,5l2.3,4.3
			c0.1,0.2,0.2,0.3,0.3,0.5c0,0.2-0.3-0.2-0.3-0.2h-4c-0.2,0-0.3-0.1-0.4-0.3l-2-3.7h-1.3v4.1c0,0,0.4,0.4,0.1-0.1h-2.7
			c-0.2,0.5-0.4,0.4-0.4,0.1V34.6z M104.5,38.5c0-0.7-0.5-1.4-1.2-1.5c-0.3,0-0.6,0-0.9,0h-1.1v3h1.5c0.2,0,0.3,0,0.5,0
			C104,39.9,104.5,39.2,104.5,38.5z"/>
		<path class="st0" d="M112.3,34.4c0-0.2,0.2-0.4,0.4-0.4h8.2c0.2,0,0.4,0.2,0.4,0.4v2.2c0,0.2-0.2,0.4-0.4,0.4h-5.6v2h4.6
			c0.2,0.5,0.4,0.6,0.4,0.8v1.9c0,0.2-0.4,0.2-0.4,0.2h-4.6v2h6.1c0.3,0.4-0.1,0.8-0.1,0.8v1.7c0,0.3-0.2,0.4-0.4,0.4h-8.2
			c-0.2,0-0.4-0.2-0.4-0.4V34.4z"/>
		<path class="st0" d="M125.3,34.4c0-0.2,0.2-0.4,0.4-0.4h9.2c0.2,0,0.4,0.2,0.4,0.4v2.2c0,0.2-0.2,0.4-0.4,0.4h-5.6v2h4.3
			c0.2,0.5,0.4,0.6,0.7,0.8v1.9c-0.3,0.2-0.7,0.2-0.7,0.2h-4.3v2h5.8c0.3,0.4,0.2,0.8,0.2,0.8v1.7c0,0.3-0.2,0.4-0.4,0.4h-9.2
			c-0.2,0-0.4-0.1-0.4-0.4V34.4z"/>
		<path class="st0" d="M93.9,52.8c0.2,0.1,0.3,0.3,0.2,0.6l-1.5,2.1c-0.1,0.2-0.3,0.2-0.5,0.1c-0.9-0.7-2.2-0.9-3.2-0.5
			c-1,0.4-1.8,1.3-2,2.4c-0.2,1.1,0,2.3,0.8,3.2c0.7,0.9,1.9,1.2,3,1.1c0.5-0.1,1.1-0.3,1.5-0.6c0.2-0.1,0.3-0.1,0.5,0.1l1.5,2.2
			c0.1,0.2,0,0.4-0.2,0.5c-2,1.3-4.6,1.5-6.8,0.4c-2.1-1.1-3.5-3.2-3.7-5.5c-0.1-2.4,1-4.7,3-6c2-1.3,4.6-1.5,6.8-0.4
			C93.4,52.5,93.7,52.6,93.9,52.8C94,52.8,93.4,52.4,93.9,52.8z"/>
		<path class="st0" d="M98.3,52.4c0-0.2,0.2-0.4,0.4-0.4h3.2c0.2,0,0.4,0.2,0.4,0.4V62h4.6c0.2,0,0.4,0.2,0.4,0.4v2.2
			c0,0.2-0.2,0.4-0.4,0.4h-8.2c-0.2,0-0.4-0.2-0.4-0.4V52.4z"/>
		<path class="st0" d="M113.3,59.8c0,0.6,0.1,1.2,0.5,1.7c0.4,0.5,0.9,0.7,1.5,0.7c0.6,0,1.2-0.2,1.5-0.7c0.4-0.5,0.5-1.1,0.5-1.7
			v-7.4c0-0.2,0.2-0.4,0.4-0.4h3.2c0.2,0,0.4,0.1,0.4,0.4v7.4c0,1.1-0.2,2.2-0.7,3.1c-0.5,0.9-1.4,1.6-2.4,2
			c-1.1,0.4-2.4,0.5-3.6,0.3c-1.1-0.2-2.2-0.6-2.9-1.4c-1-1.1-1.4-2.5-1.4-4v-7.4c0-0.2,0.2-0.4,0.4-0.4h2.2c0.2,0,0.4,0.2,0.4,0.4
			V59.8z"/>
		<path class="st0" d="M125.3,52.4c0-0.2,0.2-0.4,0.4-0.4h5.8c1.4,0,2.7,0.8,3.3,2.1c0.6,1.3,0.5,2.9-0.4,4c1.2,1.1,1.7,2.8,1.1,4.4
			c-0.5,1.5-2,2.6-3.6,2.6h-6.3c-0.2,0-0.4-0.2-0.4-0.4V52.4z M131.9,55.7c0-0.7-0.6-1.3-1.3-1.7h-2.3v3h2.3
			C131.3,56.9,131.9,56.4,131.9,55.7z M132,60.5c0-0.7-0.6-1.5-1.4-1.5h-2.4v3h2.4C131.4,62,132,61.3,132,60.5z"/>
		<path class="st0" d="M130.1,20.8l5.5-8.3c0.1-0.2,0-0.5-0.3-0.5h-4.1c-0.3,0-0.5,0.1-0.6,0.3l-3.1,4.6l-3.1-4.6
			c-0.1-0.2-0.4-0.3-0.6-0.3h-4.1c-0.3,0-0.4,0.3-0.3,0.5l5.5,8.3l-5.8,8.7c-0.1,0.2,0,0.5,0.3,0.5h4.1c0.3,0,0.5-0.1,0.6-0.3l3.3-5
			l3.3,5c0.1,0.2,0.4,0.3,0.6,0.3h4.1c0.3,0,0.4-0.3,0.3-0.5L130.1,20.8z"/>
	</g>
	<linearGradient id="SVGID_11_" gradientUnits="userSpaceOnUse" x1="7.8352" y1="34.5062" x2="62.3339" y2="34.5062">
		<stop  offset="0" style="stop-color:#F05A26"/>
		<stop  offset="1" style="stop-color:#FAAF3B"/>
	</linearGradient>
	<path class="st11" d="M62.2,37.1c-0.1-0.8-0.2-1.7-0.4-2.1h0c-0.5-1.9-1.3-4.7-2.5-6.8c-0.7-1.3-1.6-2.6-2.5-3.8
		c-3.6-4.8-8.3-8.9-12.5-13c0,0-5.4-4.7-8.2-7.3c-0.6-0.6-1.9-0.1-1.9,0.5v23.4c0,0.5,1.3,0.9,1.7,0.9h7.4c0.5,0,0.9-0.6,0.9-1
		c0-1.6,0-6.4,0-6.4c1.2,1.5,3.1,3,4.4,4.3c0,0,0,0,0,0c1.6,1.7,3.1,3.4,4.2,5.4c1.1,2.1,1.8,4.3,2,6.6c0.4,4.4-0.8,8.9-3.5,12.6
		c-2.6,3.5-6.4,6.1-10.8,7.2c-4.6,1.2-9.6,0.9-13.9-1c-4-1.7-7.4-4.8-9.5-8.5c-2.2-3.9-2.8-8.6-1.7-12.9c0.8-3.2,2.3-6.2,4.8-8.5
		c0.3-0.3,0.3-0.8,0-1.1c-1-1-3.1-3-4-3.7c-0.2-0.2-0.8-0.3-1.2,0.1c-3,2.8-5.1,6.5-6.3,10.4C7.5,37,7.5,41.9,8.8,46.4
		c1.2,4.3,3.7,8.2,7,11.3c3.4,3.2,7.8,5.6,12.5,6.7c4.9,1.2,10.1,1,14.9-0.3c4.7-1.3,8.9-3.9,12.2-7.3c3.1-3.3,5.4-7.2,6.3-11.6
		C62.3,42.4,62.5,39.8,62.2,37.1z"/>
	<linearGradient id="SVGID_12_" gradientUnits="userSpaceOnUse" x1="0" y1="37.8408" x2="70.9131" y2="37.8408">
		<stop  offset="0" style="stop-color:#26A9E0"/>
		<stop  offset="1" style="stop-color:#00A69C"/>
	</linearGradient>
	<path class="st12" d="M63.8,18.9c-1.9-2.5-5-6.1-8.5-9.9h7.7c0.5,0.3,0.8,0,1.2-0.4V1.4C63.9,0.9,63.5,0.7,63,0H38.8
		c-0.9,0.7-1.1,1.6-0.7,2c2.5,2.5,7.5,7.5,7.5,7.5c4.8,4.9,10.1,10.5,12.6,13.8c3.7,4.9,5.7,10.9,5.7,17c0,9.5-5.1,18-12.3,23.1
		c-4.6,3.3-10.2,5.2-16.2,5.2v0c-6.5,0-14.2-2.7-19.4-7.5c-5.8-5.3-9-13-9-20.9c0-7.5,2.9-14.5,7.8-19.5c0.3-0.3,0.4-0.8,0.1-1.1
		c-1.1-1.1-3.5-3.5-3.8-3.9c-0.6-0.6-1.1-0.2-1.4,0.1C3.7,22.2,0,30.8,0,40.2c0,19.6,15.9,35.5,35.4,35.5
		c19.7,0,35.5-15.9,35.5-35.5C70.9,32.2,68.3,24.8,63.8,18.9z"/>
</g>
</svg>
