<?xml version="1.0" encoding="utf-8"?>
<!-- Generator: Adobe Illustrator 21.1.0, SVG Export Plug-In . SVG Version: 6.00 Build 0)  -->
<svg version="1.1" id="Layer_1" xmlns="http://www.w3.org/2000/svg" xmlns:xlink="http://www.w3.org/1999/xlink" x="0px" y="0px"
	 viewBox="0 0 193.2 152" enable-background="new 0 0 193.2 152" xml:space="preserve">
<polygon points="70.9,77.4 61.7,77.4 62.8,61.5 56.8,77.4 48.4,77.4 61.8,41.5 70.8,41.5 69.8,57.6 75.8,41.5 84.3,41.5 "/>
<polygon points="72,77.4 85.4,41.5 93.9,41.5 80.4,77.4 "/>
<path d="M47.4,65c-11.8,13.9-23,32.4-13.2,41c9.6,8.3,21.5,3.4,29.7,0.1s98.3-42.4,98.3-42.4c0.9-0.4,0.7-1-0.4-0.7
	c-0.4,0.1-98.1,26.6-98.1,26.6C51.3,93,37.2,85.4,47.4,65z"/>
<path d="M132.3,47.5l2.3-6h-17h-0.1h-8.8l-8.9,10.8l4.1-10.8h-8.6L82,77.4h8.5l5.7-15l0.4,15l26-0.1l2.5-6.9h-9.9l3.3-8.7h8.2
	L129,55h-8.2l2.8-7.6L132.3,47.5L132.3,47.5z M104.9,75l-0.5-18.7l12.8-14.1L104.9,75z"/>
</svg>
