<?xml version="1.0" encoding="utf-8"?>
<!-- Generator: Adobe Illustrator 21.1.0, SVG Export Plug-In . SVG Version: 6.00 Build 0)  -->
<svg version="1.1" id="Layer_1" xmlns="http://www.w3.org/2000/svg" xmlns:xlink="http://www.w3.org/1999/xlink" x="0px" y="0px"
	 viewBox="0 0 59 57.3" enable-background="new 0 0 59 57.3" xml:space="preserve">
<g>
	<g>
		
			<linearGradient id="SVGID_1_" gradientUnits="userSpaceOnUse" x1="18.1789" y1="308.6621" x2="40.8211" y2="308.6621" gradientTransform="matrix(1 0 0 1 0 -280)">
			<stop  offset="0" style="stop-color:#F05A26"/>
			<stop  offset="1" style="stop-color:#FAAF3B"/>
		</linearGradient>
		<path fill="url(#SVGID_1_)" d="M40.3,35.2l-3.5-3.5c-0.7-0.7-1.8-0.7-2.6,0l-1.8,1.8c-0.1-0.1-0.2-0.1-0.3-0.2
			c-1.1-0.6-2.6-1.5-4.2-3.1s-2.5-3.1-3.1-4.2c-0.1-0.1-0.1-0.2-0.2-0.3l1.2-1.2l0.6-0.6c0.7-0.7,0.7-1.9,0-2.6L23,17.9
			c-0.7-0.7-1.8-0.7-2.6,0l-1,1l0,0c-0.3,0.4-0.6,0.9-0.8,1.4c-0.2,0.5-0.3,1-0.4,1.5c-0.5,3.8,1.3,7.3,6,12.1
			c6.6,6.6,11.9,6.1,12.1,6c0.5-0.1,1-0.2,1.5-0.4s1-0.5,1.4-0.8l0,0l1-1C41,37.1,41,35.9,40.3,35.2L40.3,35.2z"/>
	</g>
</g>
</svg>
