<?xml version="1.0" encoding="utf-8"?>
<!-- Generator: Adobe Illustrator 21.1.0, SVG Export Plug-In . SVG Version: 6.00 Build 0)  -->
<svg version="1.1" id="Layer_1" xmlns="http://www.w3.org/2000/svg" xmlns:xlink="http://www.w3.org/1999/xlink" x="0px" y="0px"
	 viewBox="0 0 189.6 163.7" enable-background="new 0 0 189.6 163.7" xml:space="preserve">
<linearGradient id="SVGID_1_" gradientUnits="userSpaceOnUse" x1="137.487" y1="124.587" x2="52.113" y2="39.213">
	<stop  offset="0" style="stop-color:#FFFFFF"/>
	<stop  offset="1" style="stop-color:#ECEFF1"/>
</linearGradient>
<path fill="url(#SVGID_1_)" d="M86.3,5L17.9,73.4c-4.7,4.7-4.7,12.3,0,17l68.4,68.4c4.7,4.7,12.3,4.7,17,0l68.4-68.4
	c4.7-4.7,4.7-12.3,0-17L103.3,5C98.6,0.3,91,0.3,86.3,5z"/>
<linearGradient id="SVGID_2_" gradientUnits="userSpaceOnUse" x1="52.1" y1="255.9" x2="137.5" y2="255.9" gradientTransform="matrix(1 0 0 1 0 -174)">
	<stop  offset="0" style="stop-color:#27A9E1"/>
	<stop  offset="1" style="stop-color:#00A79D"/>
</linearGradient>
<path fill="url(#SVGID_2_)" d="M117.4,24.1H59.2c-3.9,0-7.1,3.2-7.1,7.1v101.4c0,3.9,3.2,7.1,7.1,7.1h71.2c3.9,0,7.1-3.2,7.1-7.1V46
	L117.4,24.1z M119,34.7l8.8,9.6H119V34.7z M131.6,132.5c0,0.6-0.5,1.1-1.1,1.1H59.2c-0.6,0-1.1-0.5-1.1-1.1V31.2
	c0-0.6,0.5-1.1,1.1-1.1h53.9v17.2c0,1.6,1.3,3,3,3h15.5V132.5z M68.6,55.7h50.5c1.2,0,2.2,1,2.2,2.2s-1,2.2-2.2,2.2H68.6
	c-1.2,0-2.2-1-2.2-2.2C66.3,56.7,67.3,55.7,68.6,55.7L68.6,55.7z M121.3,72.9c0,1.2-1,2.2-2.2,2.2H68.6c-1.2,0-2.2-1-2.2-2.2
	s1-2.2,2.2-2.2h50.5C120.3,70.7,121.3,71.7,121.3,72.9L121.3,72.9z M121.3,87.4c0,1.2-1,2.2-2.2,2.2H68.6c-1.2,0-2.2-1-2.2-2.2
	s1-2.2,2.2-2.2h50.5C120.3,85.2,121.3,86.2,121.3,87.4L121.3,87.4z M121.3,102.1c0,1.2-1,2.2-2.2,2.2H68.6c-1.2,0-2.2-1-2.2-2.2
	s1-2.2,2.2-2.2h50.5C120.3,99.9,121.3,100.9,121.3,102.1L121.3,102.1z"/>
</svg>
