<?xml version="1.0" encoding="utf-8"?>
<!-- Generator: Adobe Illustrator 21.1.0, SVG Export Plug-In . SVG Version: 6.00 Build 0)  -->
<svg version="1.1" id="Layer_1" xmlns="http://www.w3.org/2000/svg" xmlns:xlink="http://www.w3.org/1999/xlink" x="0px" y="0px"
	 viewBox="0 0 189.6 163.7" enable-background="new 0 0 189.6 163.7" xml:space="preserve">
<linearGradient id="SVGID_1_" gradientUnits="userSpaceOnUse" x1="137.537" y1="124.587" x2="52.163" y2="39.213">
	<stop  offset="0" style="stop-color:#FFFFFF"/>
	<stop  offset="1" style="stop-color:#ECEFF1"/>
</linearGradient>
<path fill="url(#SVGID_1_)" d="M86.4,5L18,73.4c-4.7,4.7-4.7,12.3,0,17l68.4,68.4c4.7,4.7,12.3,4.7,17,0l68.4-68.4
	c4.7-4.7,4.7-12.3,0-17L103.3,5C98.7,0.3,91,0.3,86.4,5z"/>
<linearGradient id="SVGID_2_" gradientUnits="userSpaceOnUse" x1="42" y1="255.9" x2="147.7" y2="255.9" gradientTransform="matrix(1 0 0 1 0 -174)">
	<stop  offset="0" style="stop-color:#27A9E1"/>
	<stop  offset="1" style="stop-color:#00A79D"/>
</linearGradient>
<path fill="url(#SVGID_2_)" d="M144.7,29h-18.3v-4.1c0-1.7-1.4-3-3-3h-57c-1.7,0-3,1.4-3,3V29H45c-1.7,0-3,1.4-3,3v21.4
	c0,0.2,0,6.1,3,12c2.6,5.2,8,11.4,18.8,12.3c1.9,11.6,10.1,21,20.9,24.7v19.2H73.5c-1.3,0-2.5,0.8-2.9,2.1l-4.7,14.2
	c-0.3,0.9-0.2,1.9,0.4,2.7s1.5,1.3,2.5,1.3H121c1,0,1.9-0.5,2.5-1.3s0.7-1.8,0.4-2.7l-4.7-14.2c-0.4-1.2-1.6-2.1-2.9-2.1H105v-19.2
	c10.8-3.7,19-13.2,20.9-24.7c10.8-0.9,16.2-7,18.8-12.3c3-5.9,3-11.8,3-12V32C147.7,30.3,146.3,29,144.7,29L144.7,29z M50.4,62.8
	C48,58.2,48,53.3,48,53.3V35h15.3v36.5C57.4,70.8,53,67.9,50.4,62.8L50.4,62.8z M116.7,135.8H72.9l2.7-8.2H114L116.7,135.8z
	 M98.9,121.5h-8.2v-17.8c1.3,0.2,2.7,0.3,4.1,0.3s2.8-0.1,4.1-0.3V121.5z M94.8,98c-14,0-25.5-11.4-25.5-25.5V27.9h50.9v44.6
	C120.3,86.6,108.9,98,94.8,98L94.8,98z M141.6,53.3c0,0-0.1,4.9-2.4,9.5c-2.6,5-6.9,7.9-12.9,8.7V35h15.3V53.3z"/>
<linearGradient id="SVGID_3_" gradientUnits="userSpaceOnUse" x1="76.2902" y1="231" x2="113.3555" y2="231" gradientTransform="matrix(1 0 0 1 0 -174)">
	<stop  offset="0" style="stop-color:#27A9E1"/>
	<stop  offset="1" style="stop-color:#00A79D"/>
</linearGradient>
<path fill="url(#SVGID_3_)" d="M111.2,50.6l-8.7-2.6l-5.1-7.5c-0.6-0.8-1.5-1.3-2.5-1.3s-1.9,0.5-2.5,1.3L87.3,48l-8.7,2.6
	c-1,0.3-1.7,1-2,2c-0.3,0.9-0.1,2,0.5,2.8l5.5,7.2l-0.3,9.1c0,1,0.4,1.9,1.2,2.5c0.8,0.6,1.9,0.7,2.8,0.4l8.6-3l8.6,3
	c0.3,0.1,0.7,0.2,1,0.2c0.6,0,1.3-0.2,1.8-0.6c0.8-0.6,1.3-1.5,1.2-2.5l-0.3-9.1l5.5-7.2c0.6-0.8,0.8-1.8,0.5-2.8
	C112.9,51.7,112.1,50.9,111.2,50.6L111.2,50.6z M101.7,59.8c-0.4,0.6-0.6,1.2-0.6,1.9l0.2,5.8l-5.4-1.9c-0.3-0.1-0.7-0.2-1-0.2
	s-0.7,0.1-1,0.2l-5.4,1.9l0.2-5.8c0-0.7-0.2-1.4-0.6-1.9l-3.5-4.6l5.5-1.6c0.7-0.2,1.2-0.6,1.6-1.2l3.3-4.7l3.3,4.7
	c0.4,0.6,1,1,1.6,1.2l5.5,1.6L101.7,59.8z"/>
</svg>
