<?xml version="1.0" encoding="utf-8"?>
<!-- Generator: Adobe Illustrator 21.1.0, SVG Export Plug-In . SVG Version: 6.00 Build 0)  -->
<svg version="1.1" id="Layer_1" xmlns="http://www.w3.org/2000/svg" xmlns:xlink="http://www.w3.org/1999/xlink" x="0px" y="0px"
	 viewBox="0 0 189.6 163.7" enable-background="new 0 0 189.6 163.7" xml:space="preserve">
<linearGradient id="SVGID_1_" gradientUnits="userSpaceOnUse" x1="137.537" y1="124.587" x2="52.163" y2="39.213">
	<stop  offset="0" style="stop-color:#FFFFFF"/>
	<stop  offset="1" style="stop-color:#ECEFF1"/>
</linearGradient>
<path fill="url(#SVGID_1_)" d="M86.4,5L18,73.4c-4.7,4.7-4.7,12.3,0,17l68.4,68.4c4.7,4.7,12.3,4.7,17,0l68.4-68.4
	c4.7-4.7,4.7-12.3,0-17L103.3,5C98.7,0.3,91,0.3,86.4,5z"/>
<linearGradient id="SVGID_2_" gradientUnits="userSpaceOnUse" x1="104.0942" y1="273.1" x2="121.8129" y2="273.1" gradientTransform="matrix(1 0 0 1 0 -174)">
	<stop  offset="0" style="stop-color:#27A9E1"/>
	<stop  offset="1" style="stop-color:#00A79D"/>
</linearGradient>
<path fill="url(#SVGID_2_)" d="M113,89.1c2.6,0,4.6,1.8,4.6,4c0,1.2,0.9,2.1,2.1,2.1s2.1-0.9,2.1-2.1c0-3.9-2.9-7.1-6.7-8V84
	c0-1.2-0.9-2.1-2.1-2.1s-2.1,0.9-2.1,2.1v1.1c-3.9,0.9-6.7,4.1-6.7,8c0,4.5,4,8.2,8.9,8.2c2.6,0,4.6,1.8,4.6,4s-2.1,4-4.6,4
	c-2.6,0-4.6-1.8-4.6-4c0-1.2-0.9-2.1-2.1-2.1s-2.1,0.9-2.1,2.1c0,3.9,2.9,7.1,6.7,8v0.9c0,1.2,0.9,2.1,2.1,2.1s2.1-0.9,2.1-2.1v-0.9
	c3.9-0.9,6.7-4.1,6.7-8c0-4.5-4-8.2-8.9-8.2c-2.6,0-4.6-1.8-4.6-4C108.3,90.9,110.4,89.1,113,89.1z"/>
<linearGradient id="SVGID_3_" gradientUnits="userSpaceOnUse" x1="121.8066" y1="267.8436" x2="140.3851" y2="267.8436" gradientTransform="matrix(1 0 0 1 0 -174)">
	<stop  offset="0" style="stop-color:#27A9E1"/>
	<stop  offset="1" style="stop-color:#00A79D"/>
</linearGradient>
<path fill="url(#SVGID_3_)" d="M136.1,84.5c-2.8-4.3-6.6-7.7-11.2-9.9c-1.1-0.5-2.3-0.1-2.8,1s-0.1,2.3,1,2.8
	c8,3.8,13.2,12.1,13.2,20.9c0,3.8-0.9,7.6-2.7,10.9c-0.5,1-0.2,2.3,0.9,2.9c0.3,0.2,0.7,0.2,1,0.2c0.8,0,1.5-0.4,1.9-1.1
	c2.1-3.9,3.2-8.4,3.2-12.9C140.4,94.1,138.9,89,136.1,84.5z"/>
<linearGradient id="SVGID_4_" gradientUnits="userSpaceOnUse" x1="114.0179" y1="248" x2="118.3687" y2="248" gradientTransform="matrix(1 0 0 1 0 -174)">
	<stop  offset="0" style="stop-color:#27A9E1"/>
	<stop  offset="1" style="stop-color:#00A79D"/>
</linearGradient>
<path fill="url(#SVGID_4_)" d="M116.1,76.1L116.1,76.1L116.1,76.1c1.3,0,2.2-0.9,2.2-2.1s-0.9-2.1-2.1-2.1h-0.1
	c-1.2,0-2.1,0.9-2.1,2.1S115,76.1,116.1,76.1z"/>
<linearGradient id="SVGID_5_" gradientUnits="userSpaceOnUse" x1="85.5418" y1="278.8328" x2="104.1201" y2="278.8328" gradientTransform="matrix(1 0 0 1 0 -174)">
	<stop  offset="0" style="stop-color:#27A9E1"/>
	<stop  offset="1" style="stop-color:#00A79D"/>
</linearGradient>
<path fill="url(#SVGID_5_)" d="M102.9,120.3c-8-3.8-13.2-12.1-13.2-20.9c0-3.8,0.9-7.6,2.7-10.9c0.5-1,0.2-2.3-0.9-2.9
	c-1-0.5-2.3-0.2-2.9,0.9c-2.1,3.9-3.2,8.4-3.2,12.9c0,5.3,1.5,10.4,4.3,14.8c2.8,4.3,6.6,7.7,11.2,9.9c0.3,0.1,0.6,0.2,0.9,0.2
	c0.8,0,1.5-0.4,1.9-1.2C104.4,122,104,120.8,102.9,120.3z"/>
<linearGradient id="SVGID_6_" gradientUnits="userSpaceOnUse" x1="107.5586" y1="298.6" x2="111.909" y2="298.6" gradientTransform="matrix(1 0 0 1 0 -174)">
	<stop  offset="0" style="stop-color:#27A9E1"/>
	<stop  offset="1" style="stop-color:#00A79D"/>
</linearGradient>
<path fill="url(#SVGID_6_)" d="M109.8,122.5L109.8,122.5c-1.3,0-2.2,0.9-2.2,2.1s0.9,2.1,2.1,2.1h0.1c1.2,0,2.1-0.9,2.1-2.1
	S111,122.5,109.8,122.5z"/>
<linearGradient id="SVGID_7_" gradientUnits="userSpaceOnUse" x1="40.8" y1="255.9" x2="148.9" y2="255.9" gradientTransform="matrix(1 0 0 1 0 -174)">
	<stop  offset="0" style="stop-color:#27A9E1"/>
	<stop  offset="1" style="stop-color:#00A79D"/>
</linearGradient>
<path fill="url(#SVGID_7_)" d="M122.5,64.8c-0.3-0.6-0.6-1.2-0.9-1.7h5.5c5.4,0,9.7-4.4,9.7-9.7s-4.4-9.7-9.7-9.7h-16.9
	c1.1-1.6,1.7-3.5,1.7-5.5c0-5.4-4.4-9.7-9.7-9.7H50.5c-5.4,0-9.7,4.4-9.7,9.7s4.4,9.7,9.7,9.7h16.9c-1.1,1.6-1.7,3.5-1.7,5.5
	s0.6,3.9,1.7,5.5h-5.5c-5.4,0-9.7,4.4-9.7,9.7c0,3.1,1.4,5.8,3.7,7.6c-2.2,1.8-3.7,4.5-3.7,7.6s1.4,5.8,3.7,7.6
	c-2.2,1.8-3.7,4.5-3.7,7.6s1.4,5.8,3.7,7.6c-2.2,1.8-3.7,4.5-3.7,7.6c0,5.4,4.4,9.7,9.7,9.7h24.9c6.5,7,15.9,11.4,26.2,11.4
	c19.8,0,35.9-16.1,35.9-35.9C148.8,82.9,137.7,69,122.5,64.8z M45,38.2c0-3,2.5-5.5,5.5-5.5h51.7c3,0,5.5,2.5,5.5,5.5
	s-2.5,5.5-5.5,5.5H50.5C47.5,43.7,45,41.2,45,38.2z M69.9,53.4c0-3,2.5-5.5,5.5-5.5h51.7c3,0,5.5,2.5,5.5,5.5s-2.5,5.5-5.5,5.5
	h-13.5H75.4C72.4,58.8,69.9,56.4,69.9,53.4z M56.4,68.5c0-3,2.5-5.5,5.5-5.5h51.7c0.8,0,1.7,0.2,2.4,0.6c-1-0.1-2-0.1-3-0.1
	c-9.9,0-18.9,4-25.4,10.5H61.9C58.9,74,56.4,71.6,56.4,68.5z M56.4,83.7c0-3,2.5-5.5,5.5-5.5H84c-2.4,3.3-4.2,7-5.4,11H61.9
	C58.9,89.2,56.4,86.8,56.4,83.7z M56.4,98.9c0-3,2.5-5.5,5.5-5.5h15.7c-0.3,1.9-0.5,3.9-0.5,5.9c0,1.7,0.1,3.4,0.4,5.1H61.9
	C58.9,104.4,56.4,101.9,56.4,98.9z M61.9,119.6c-3,0-5.5-2.5-5.5-5.5s2.5-5.5,5.5-5.5h16.4c1.1,4,2.8,7.7,5.1,11H61.9z M113,131
	c-17.4,0-31.6-14.2-31.6-31.6S95.5,67.7,113,67.7s31.6,14.2,31.6,31.6S130.4,131,113,131z"/>
</svg>
