<?xml version="1.0" encoding="utf-8"?>
<!-- Generator: Adobe Illustrator 21.1.0, SVG Export Plug-In . SVG Version: 6.00 Build 0)  -->
<svg version="1.1" id="Layer_1" xmlns="http://www.w3.org/2000/svg" xmlns:xlink="http://www.w3.org/1999/xlink" x="0px" y="0px"
	 viewBox="0 0 189.6 163.7" enable-background="new 0 0 189.6 163.7" xml:space="preserve">
<linearGradient id="SVGID_1_" gradientUnits="userSpaceOnUse" x1="137.5202" y1="124.4524" x2="52.1463" y2="39.0784">
	<stop  offset="0" style="stop-color:#FFFFFF"/>
	<stop  offset="1" style="stop-color:#ECEFF1"/>
</linearGradient>
<path fill="url(#SVGID_1_)" d="M86.3,4.9L17.9,73.3c-4.7,4.7-4.7,12.3,0,17l68.4,68.4c4.7,4.7,12.3,4.7,17,0l68.4-68.4
	c4.7-4.7,4.7-12.3,0-17L103.3,4.9C98.7,0.2,91,0.2,86.3,4.9z"/>
<g>
	
		<linearGradient id="SVGID_2_" gradientUnits="userSpaceOnUse" x1="72.9" y1="304.5" x2="95.7662" y2="304.5" gradientTransform="matrix(1 0 0 1 0 -174)">
		<stop  offset="0" style="stop-color:#27A9E1"/>
		<stop  offset="1" style="stop-color:#00A79D"/>
	</linearGradient>
	<path fill="url(#SVGID_2_)" d="M84.3,119.1c-6.3,0-11.4,5.1-11.4,11.4s5.1,11.4,11.4,11.4s11.4-5.1,11.4-11.4
		C95.8,124.2,90.6,119.1,84.3,119.1z M84.3,135.6c-2.8,0-5-2.3-5-5c0-2.8,2.3-5,5-5s5,2.3,5,5C89.4,133.3,87.1,135.6,84.3,135.6z"/>
	
		<linearGradient id="SVGID_3_" gradientUnits="userSpaceOnUse" x1="113" y1="304.5" x2="135.8662" y2="304.5" gradientTransform="matrix(1 0 0 1 0 -174)">
		<stop  offset="0" style="stop-color:#27A9E1"/>
		<stop  offset="1" style="stop-color:#00A79D"/>
	</linearGradient>
	<path fill="url(#SVGID_3_)" d="M124.4,119.1c-6.3,0-11.4,5.1-11.4,11.4s5.1,11.4,11.4,11.4c6.3,0,11.4-5.1,11.4-11.4
		C135.9,124.2,130.7,119.1,124.4,119.1z M124.4,135.6c-2.8,0-5-2.3-5-5c0-2.8,2.3-5,5-5s5,2.3,5,5
		C129.5,133.3,127.2,135.6,124.4,135.6z"/>
	
		<linearGradient id="SVGID_4_" gradientUnits="userSpaceOnUse" x1="78.3" y1="236.1" x2="130.4" y2="236.1" gradientTransform="matrix(1 0 0 1 0 -174)">
		<stop  offset="0" style="stop-color:#27A9E1"/>
		<stop  offset="1" style="stop-color:#00A79D"/>
	</linearGradient>
	<path fill="url(#SVGID_4_)" d="M81.5,65.3h45.7c1.8,0,3.2-1.4,3.2-3.2s-1.4-3.2-3.2-3.2H81.5c-1.8,0-3.2,1.4-3.2,3.2
		S79.7,65.3,81.5,65.3z"/>
	
		<linearGradient id="SVGID_5_" gradientUnits="userSpaceOnUse" x1="80.8" y1="252.7" x2="127.945" y2="252.7" gradientTransform="matrix(1 0 0 1 0 -174)">
		<stop  offset="0" style="stop-color:#27A9E1"/>
		<stop  offset="1" style="stop-color:#00A79D"/>
	</linearGradient>
	<path fill="url(#SVGID_5_)" d="M124.8,75.5H84c-1.8,0-3.2,1.4-3.2,3.2s1.4,3.2,3.2,3.2h40.8c1.8,0,3.2-1.4,3.2-3.2
		S126.5,75.5,124.8,75.5z"/>
	
		<linearGradient id="SVGID_6_" gradientUnits="userSpaceOnUse" x1="29.8309" y1="241.8154" x2="159.8356" y2="241.8154" gradientTransform="matrix(1 0 0 1 0 -174)">
		<stop  offset="0" style="stop-color:#27A9E1"/>
		<stop  offset="1" style="stop-color:#00A79D"/>
	</linearGradient>
	<path fill="url(#SVGID_6_)" d="M158.4,44.7c-1.2-1.5-3-2.4-4.9-2.4H54l-2-9.7c-0.4-2-1.8-3.7-3.7-4.6l-14-6.1
		c-1.6-0.7-3.5,0-4.2,1.7c-0.7,1.6,0,3.5,1.7,4.2l14,6.1l15.4,75c0.6,3,3.2,5.1,6.3,5.1H144c1.8,0,3.2-1.4,3.2-3.2
		c0-1.8-1.4-3.2-3.2-3.2H67.5l-1.9-9.1h78.9c3,0,5.6-2.1,6.3-5.1l8.9-43.3C160.1,48.1,159.6,46.2,158.4,44.7z M144.5,92.1H64.3
		l-8.9-43.3h98.1L144.5,92.1z"/>
</g>
</svg>
