<?xml version="1.0" encoding="utf-8"?>
<!-- Generator: Adobe Illustrator 21.1.0, SVG Export Plug-In . SVG Version: 6.00 Build 0)  -->
<svg version="1.1" id="Layer_1" xmlns="http://www.w3.org/2000/svg" xmlns:xlink="http://www.w3.org/1999/xlink" x="0px" y="0px"
	 viewBox="0 0 176.5 280" enable-background="new 0 0 176.5 280" xml:space="preserve">
<path fill="#F5F5F5" d="M83.1,195.6l-7.6-1.9l1.9-7.6c0.8-3.1-1.2-6.3-4.3-7.1c-3.1-0.8-6.3,1.2-7.1,4.3l-1.9,7.6l-7.6-1.9
	c-3.1-0.8-6.3,1.2-7.1,4.3s1.2,6.3,4.3,7.1l7.6,1.9l-1.9,7.6c-0.8,3.1,1.2,6.3,4.3,7.1s6.3-1.2,7.1-4.3l1.9-7.6l7.6,1.9
	c3.1,0.8,6.3-1.2,7.1-4.3C88.2,199.5,86.2,196.3,83.1,195.6z"/>
<path fill="#F5F5F5" d="M110.1,134l13.4-0.8c5.8-0.3,10.8-3.9,13-9.3c2.3-5.3,1.3-11.4-2.5-15.8l-12-13.7c-0.7-0.9-1-2-0.7-3.1
	l4.6-17.6c1.5-5.6-0.4-11.5-4.8-15.3s-10.4-4.7-15.8-2.5L88.6,63c-1,0.4-2.2,0.3-3.2-0.3L70,53c-4.9-3.1-11-3.2-16-0.2
	s-7.7,8.5-7.2,14.3l1.6,18.1c0.1,1.1-0.4,2.2-1.2,2.9l-14,11.6c-4.5,3.7-6.4,9.5-5.1,15.1c1.3,5.7,5.6,10,11.3,11.3l17.7,4.1
	c1.1,0.3,2,1,2.4,2.1l6.7,17c2.1,5.3,7,9,12.8,9.5s11.2-2.3,14.2-7.3l6.9-11.5l76.4,126.1v-22.6L110.1,134z M92.5,129.9l-9.4,15.6
	c-0.7,1.1-1.9,1.8-3.2,1.6c-1.3-0.1-2.4-0.9-2.9-2.2L70.4,128c-1.8-4.6-5.7-8-10.5-9.2c-0.1,0-0.1,0-0.2,0L42,114.7l0,0
	c-1.3-0.3-2.2-1.3-2.5-2.5c-0.3-1.3,0.1-2.6,1.2-3.4l14-11.6c3.8-3.2,5.9-8,5.5-13L58.5,66c-0.1-1.3,0.5-2.5,1.6-3.2s2.5-0.7,3.6,0
	l15.4,9.8c4.2,2.7,9.5,3.1,14,1.2l16.8-7.1c1.2-0.5,2.6-0.3,3.6,0.6s1.4,2.2,1.1,3.4L110,88.3c-1.2,4.8,0,10,3.2,13.7l11.9,13.8
	c0.9,1,1.1,2.3,0.6,3.5s-1.6,2-2.9,2.1l-18.2,1.1C99.6,122.9,95.1,125.6,92.5,129.9z"/>
<path fill="#F5F5F5" d="M176.5,109.8v44.9c-1.3,2.2-3.9,3.3-6.4,2.7c-3.1-0.8-5.1-3.9-4.3-7.1L169,137l-13.3-3.3
	c-3.1-0.8-5.1-3.9-4.3-7.1c0.8-3.1,3.9-5.1,7.1-4.3l13.3,3.3l3.3-13.3C175.3,111.3,175.8,110.5,176.5,109.8z"/>
</svg>
