<?xml version="1.0" encoding="utf-8"?>
<!-- Generator: Adobe Illustrator 21.1.0, SVG Export Plug-In . SVG Version: 6.00 Build 0)  -->
<svg version="1.1" id="Layer_1" xmlns="http://www.w3.org/2000/svg" xmlns:xlink="http://www.w3.org/1999/xlink" x="0px" y="0px"
	 viewBox="0 0 428 340" enable-background="new 0 0 428 340" xml:space="preserve">
<g opacity="5.000000e-02">
	<path d="M138.7,18.7l55,44c-32,17-69,59-78,95c3-2,12-3,20-3c38,0,68,29,68,72s-36,79-79,79c-47,0-89-37-89-102
		C35.7,128.7,76.7,61.7,138.7,18.7z M341.7,18.7l56,44c-32,17-70,59-78,95c3-2,12-3,20-3c37,0,67,29,67,72s-35,79-79,79
		c-47,0-88-37-88-102C239.7,128.7,279.7,61.7,341.7,18.7z"/>
</g>
</svg>
