<?xml version="1.0" encoding="utf-8"?>
<!-- Generator: Adobe Illustrator 21.1.0, SVG Export Plug-In . SVG Version: 6.00 Build 0)  -->
<svg version="1.1" id="Layer_1" xmlns="http://www.w3.org/2000/svg" xmlns:xlink="http://www.w3.org/1999/xlink" x="0px" y="0px"
	 viewBox="0 0 50.7 45" enable-background="new 0 0 50.7 45" xml:space="preserve">
<path fill="#FFFFFF" d="M31.8,25.6c0,0-0.1,0-0.1,0.1c2,1,5.3,2,8.4,2.1c0.9-1.5,1.6-3.1,2.2-4.8c-2.9,1.3-6,1.8-9.3,1.9
	C32.6,25.1,32.2,25.4,31.8,25.6z"/>
<path fill="#FFFFFF" d="M34.8,23.6c3-0.5,6.2-1.7,8.1-2.8c0.5-2,0.7-4,0.7-6.2c0-0.9,0-1.8-0.1-2.6C41.7,16.6,38.6,20.6,34.8,23.6z"
	/>
<path fill="#FFFFFF" d="M39.5,28.5c-3.5,0-6.8-0.7-9.8-1.9c-1.8-0.7-3.5-1.6-5.2-2.7l0,0C18,19.6,13.6,12.5,12.8,4.3
	c-1.1,3-1.8,6.2-1.8,9.6c0,0.5,0,0.9,0,1.4c0,0.3,0,0.7,0.1,1c0.1,1.1,0.2,2.1,0.5,3.2c0.1,0.3,0,0.2,0.1,0.3c1.9,2,5.8,4.4,6.7,5.1
	c-1-0.2-4.7-2-6.2-3c0.8,2.7,2.1,5.4,3.8,7.6c1.2,0.5,3.6,1.7,4.4,2c-1.1-0.1-2.6-0.5-3.6-0.8c2.8,3.5,6.5,6.3,10.7,8
	c0.2,0.1,0.3,0.1,0.5,0.2c0.8-0.4,1.6-0.8,2.3-1.2C34.1,35.5,37.3,32.3,39.5,28.5C39.6,28.5,39.6,28.5,39.5,28.5z"/>
</svg>
